<?xml version="1.0" standalone="no"?>
<!DOCTYPE svg PUBLIC "-//W3C//DTD SVG 20010904//EN"
 "http://www.w3.org/TR/2001/REC-SVG-20010904/DTD/svg10.dtd">
<svg version="1.0" xmlns="http://www.w3.org/2000/svg"
 width="600.000000pt" height="600.000000pt" viewBox="0 0 600.000000 600.000000"
 preserveAspectRatio="xMidYMid meet">
<metadata>
Created by potrace 1.11, written by Peter Selinger 2001-2013
</metadata>
<g transform="translate(0.000000,600.000000) scale(0.100000,-0.100000)"
fill="#000000" stroke="none">
<path d="M2751 5969 c-686 -57 -1342 -360 -1831 -849 -646 -645 -954 -1537
-845 -2445 100 -827 534 -1555 1220 -2047 618 -443 1392 -625 2165 -507 1247
190 2245 1183 2449 2436 104 641 -12 1326 -319 1884 -276 502 -691 913 -1196
1189 -487 265 -1072 386 -1643 339z m312 -181 c3 -24 36 -357 73 -740 l68
-698 -32 -65 c-17 -36 -36 -65 -41 -65 -5 0 -29 11 -52 25 -24 14 -52 25 -61
25 -10 0 -53 -34 -95 -75 -89 -86 -79 -88 -140 30 l-36 72 47 759 c27 417 50
762 53 767 2 4 51 7 107 7 l103 0 6 -42z m212 26 c155 -11 531 -88 558 -114 5
-4 -123 -285 -284 -624 -161 -339 -296 -612 -300 -608 -3 4 -34 297 -68 652
-34 355 -65 660 -68 678 l-6 34 44 -6 c24 -3 80 -8 124 -12z m-485 -6 c0 -35
-90 -1421 -92 -1423 -4 -3 -682 1234 -686 1251 -8 32 365 135 616 169 129 17
162 18 162 3z m1208 -164 c50 -19 92 -41 92 -47 0 -7 -95 -339 -212 -740
l-212 -727 -158 -140 c-88 -77 -163 -140 -168 -140 -27 0 -40 55 -61 271 l-22
225 283 595 c156 326 298 627 317 667 18 39 37 72 41 72 4 0 49 -16 100 -36z
m-1669 -697 c312 -569 361 -664 361 -700 0 -57 -20 -332 -28 -386 l-7 -44
-200 164 -199 164 -69 190 c-263 729 -427 1199 -420 1206 5 5 49 26 98 48 61
26 92 35 96 27 4 -6 169 -307 368 -669z m1912 593 c111 -56 279 -157 374 -225
111 -80 206 -157 203 -166 -4 -9 -1071 -949 -1074 -946 -1 1 83 295 187 652
104 358 194 667 200 688 5 20 14 37 20 37 5 0 46 -18 90 -40z m-2464 -211 c57
-159 196 -554 330 -938 29 -84 52 -155 50 -157 -4 -4 -170 128 -530 424 -126
103 -258 211 -295 241 -158 126 -223 183 -220 192 5 13 167 148 259 214 103
74 321 206 334 202 6 -2 38 -82 72 -178z m3170 -291 l72 -73 -320 -390 c-176
-214 -387 -471 -469 -571 l-148 -180 -213 -76 c-259 -92 -251 -90 -268 -79
-11 7 -1 49 50 224 l64 214 570 502 c313 275 574 501 580 501 6 0 43 -33 82
-72z m-3780 -70 c55 -46 143 -118 194 -161 52 -42 169 -139 261 -215 91 -75
260 -215 375 -310 l208 -172 87 -243 c47 -133 85 -243 83 -245 -2 -2 -48 8
-102 23 -245 67 -339 97 -354 113 -17 18 -430 486 -688 781 -85 97 -190 214
-233 261 -43 46 -78 89 -78 94 0 8 139 156 146 156 0 0 46 -37 101 -82z m4023
-200 c126 -156 300 -433 283 -448 -4 -4 -136 -53 -293 -108 -157 -56 -375
-133 -485 -173 -314 -112 -508 -179 -512 -176 -1 2 66 87 150 189 83 101 280
341 437 532 l285 347 29 -33 c15 -18 63 -77 106 -130z m-4253 25 c60 -72 325
-376 369 -423 86 -92 513 -584 510 -587 -3 -3 -1345 385 -1358 393 -15 9 127
272 216 401 143 209 192 273 206 273 5 0 30 -26 57 -57z m4608 -600 c20 -43
38 -87 41 -98 5 -18 -65 -59 -618 -363 -343 -188 -644 -354 -670 -369 -47 -26
-49 -26 -165 -17 l-118 9 -21 65 c-12 36 -31 82 -44 102 l-22 38 91 109 c81
96 98 112 144 129 321 117 1322 471 1334 471 7 1 28 -34 48 -76z m-2327 -8
c-3 -23 -5 -24 -20 -13 -16 12 -16 15 -1 48 15 31 17 33 20 13 3 -13 3 -34 1
-48z m-412 -123 c1 -13 15 -39 30 -59 15 -20 45 -70 67 -111 l39 -74 -37 -84
c-21 -46 -40 -84 -42 -84 -2 0 -36 26 -75 58 l-70 57 6 120 c4 66 9 162 13
213 l6 93 30 -53 c17 -29 31 -63 33 -76z m-1632 -154 l729 -213 155 -173 c85
-95 151 -176 148 -179 -3 -4 -122 -18 -264 -31 l-257 -25 -89 44 c-76 37 -93
51 -115 88 -39 67 -136 177 -194 220 -29 21 -88 56 -132 78 -68 35 -110 51
-215 81 -49 14 -187 31 -255 32 l-80 1 -53 72 c-29 40 -73 99 -97 131 -40 55
-48 86 -21 86 6 0 339 -96 740 -212z m1478 -261 c-2 -50 -7 -95 -10 -99 -5 -5
-163 34 -189 47 -1 0 -38 100 -81 221 l-78 221 181 -149 180 -148 -3 -93z
m937 216 c-27 -91 -51 -169 -54 -172 -12 -11 -169 93 -163 108 4 10 251 230
259 231 4 0 -15 -75 -42 -167z m2075 18 c25 -77 56 -194 70 -260 28 -129 60
-370 52 -379 -3 -3 -72 0 -153 7 -82 6 -400 27 -708 46 -308 20 -563 36 -568
38 -10 3 1234 686 1250 687 7 0 32 -61 57 -139z m-2565 -78 c31 -26 58 -50 61
-54 3 -3 14 -9 25 -13 18 -7 16 -11 -25 -46 -25 -22 -48 -40 -52 -40 -13 0
-98 169 -92 185 9 24 23 19 83 -32z m-80 -123 l32 -60 -55 0 c-30 0 -62 -3
-71 -6 -12 -5 -8 10 17 60 18 36 35 66 39 66 3 0 21 -27 38 -60z m980 43
c-120 -143 -121 -145 -153 -139 -49 10 -133 54 -116 60 63 24 267 95 274 95 5
1 3 -7 -5 -16z m-1199 -102 c22 -19 29 -30 20 -31 -8 0 -39 -11 -69 -25 l-54
-25 7 37 c3 21 6 55 6 76 l0 38 28 -20 c15 -11 43 -33 62 -50z m-660 8 c74
-23 163 -48 197 -58 34 -9 66 -20 71 -26 13 -14 67 -174 61 -180 -3 -2 -48 -7
-99 -11 l-95 -6 -130 147 c-120 137 -151 175 -143 175 2 0 64 -18 138 -41z
m1110 -1 c16 -18 30 -43 30 -54 0 -21 0 -21 -64 4 l-63 25 31 28 c17 16 32 29
34 29 1 0 16 -15 32 -32z m-691 -124 l59 -17 -46 -58 -46 -58 -23 61 c-37 97
-36 97 56 72z m857 -30 c41 -34 55 -55 37 -54 -14 1 -105 90 -93 90 6 0 32
-16 56 -36z m193 -165 c22 -24 19 -32 -21 -81 l-23 -27 -26 65 -27 64 39 0
c26 0 44 -7 58 -21z m-1148 -59 c-14 -38 -29 -70 -32 -70 -3 0 -29 27 -58 59
l-51 60 42 5 c24 3 57 7 73 9 17 2 35 5 41 6 7 0 1 -28 -15 -69z m-907 49 c32
-15 24 -29 -15 -29 -22 0 -29 5 -29 20 0 23 9 25 44 9z m789 -101 c26 -30 47
-58 47 -61 0 -7 -166 -97 -179 -97 -5 0 -103 46 -218 102 -139 68 -201 103
-188 106 11 2 117 14 235 27 l215 22 20 -22 c11 -12 41 -47 68 -77z m1811 94
c8 -5 -69 -50 -86 -52 -3 0 -11 14 -17 30 l-10 31 52 -2 c29 -2 56 -5 61 -7z
m1574 -98 l72 -6 0 -94 c0 -109 5 -104 -120 -128 -74 -14 -1074 -116 -1282
-130 l-77 -6 -233 111 c-128 61 -234 112 -236 114 -2 2 5 8 15 13 14 8 39 0
108 -34 50 -24 94 -44 98 -44 5 0 7 44 5 97 l-3 98 91 50 91 51 699 -43 c385
-24 732 -46 772 -49z m-2661 41 c154 -46 202 -249 85 -361 -134 -129 -350 -48
-369 138 -7 73 10 121 62 174 60 60 132 76 222 49z m701 -63 c54 -46 63 -65
35 -76 -16 -6 -183 61 -183 74 0 3 14 22 30 42 29 35 32 36 49 20 10 -9 41
-37 69 -60z m-1978 8 c63 -28 119 -55 125 -60 7 -6 43 -23 81 -39 38 -16 92
-39 119 -52 l50 -22 -52 -23 c-29 -13 -72 -36 -95 -50 -24 -15 -80 -47 -126
-70 l-82 -42 -20 25 c-11 14 -20 29 -20 33 0 3 -42 49 -94 101 -120 123 -182
227 -143 242 6 3 41 6 77 6 58 1 79 -5 180 -49z m1912 -138 c-9 -8 -38 -25
-64 -38 l-48 -24 0 47 c0 27 -3 58 -6 71 -6 22 -5 21 64 -10 62 -29 69 -35 54
-46z m-1285 -22 c-1 -38 -3 -70 -5 -70 -14 0 -134 62 -129 67 10 9 121 72 129
72 4 1 7 -30 5 -69z m1580 -97 c112 -53 201 -99 198 -101 -3 -3 -105 -15 -227
-28 l-223 -22 -38 41 c-20 23 -51 58 -67 78 l-29 36 82 46 c45 25 86 46 92 47
5 0 101 -44 212 -97z m-1618 -29 c2 -2 -14 -25 -36 -51 -21 -26 -47 -61 -56
-76 -17 -26 -21 -27 -65 -21 -26 3 -120 11 -210 17 l-164 12 72 40 c39 22 118
65 175 95 57 30 107 58 111 62 5 5 156 -62 173 -78z m1283 -125 c-7 -7 -142
-21 -142 -15 0 2 8 23 19 47 10 24 21 53 25 63 6 17 13 12 55 -35 27 -30 46
-57 43 -60z m1613 95 c-19 -7 -380 -105 -460 -124 -44 -11 -109 -26 -143 -35
l-64 -16 -84 43 c-79 39 -101 57 -71 58 6 1 181 18 387 39 352 36 459 45 435
35z m-2792 -110 c22 -22 -2 -26 -101 -17 l-52 4 52 59 53 58 20 -48 c12 -27
24 -52 28 -56z m1938 -32 l104 -49 -80 -19 c-65 -15 -118 -18 -280 -18 -244 0
-256 1 -297 18 -34 15 -89 65 -72 67 5 0 108 11 229 23 301 32 277 33 396 -22z
m-2352 -18 c122 -5 160 -10 150 -18 -11 -8 -119 -136 -157 -186 -4 -5 -66 27
-159 83 -41 24 -52 36 -52 56 1 14 -3 39 -7 55 -7 28 -6 29 27 23 19 -4 108
-9 198 -13z m427 -27 c2 -2 -10 -47 -27 -100 -25 -77 -36 -98 -53 -103 -11 -2
-83 -3 -160 -2 l-138 3 69 85 c39 47 76 96 83 109 12 24 14 24 117 18 58 -3
107 -8 109 -10z m152 -118 c3 -6 -140 -60 -146 -55 -2 2 7 38 19 80 l22 76 51
-47 c28 -26 52 -50 54 -54z m122 -62 c58 -26 57 -31 -6 -42 l-42 -6 -4 35 c-2
20 -3 36 -2 36 1 0 25 -11 54 -23z m-100 -22 l0 -35 -82 0 c-49 0 -78 4 -72 9
6 7 130 56 152 60 1 1 2 -15 2 -34z m-280 -160 c0 -12 -17 -15 -97 -15 -53 0
-94 2 -91 5 6 6 110 22 156 24 22 1 32 -3 32 -14z m290 1 c0 -17 -57 -24 -162
-18 -60 4 -75 8 -71 18 8 20 233 20 233 0z m270 10 c0 -2 3 -11 6 -20 5 -14
-7 -16 -95 -16 -99 0 -113 4 -89 28 11 11 178 18 178 8z m80 -6 c0 -5 -2 -10
-4 -10 -3 0 -8 5 -11 10 -3 6 -1 10 4 10 6 0 11 -4 11 -10z m231 0 c10 -6 19
-17 19 -25 0 -12 -19 -15 -105 -15 l-105 0 12 25 c10 23 16 25 85 25 41 0 83
-5 94 -10z m349 -16 c16 -41 13 -44 -47 -44 -109 0 -160 11 -195 41 l-33 28
133 1 132 0 10 -26z m457 11 c17 -12 20 -22 16 -54 -8 -58 5 -123 30 -154 18
-23 42 -33 117 -53 93 -24 96 -26 152 -87 31 -34 57 -66 58 -71 0 -17 -346 45
-385 69 -11 6 -37 17 -57 24 -55 18 -108 82 -108 129 0 21 7 48 16 61 14 19
14 25 3 32 -24 15 -81 28 -156 35 -63 6 -72 9 -77 29 -3 13 -9 30 -12 39 -5
14 14 16 188 16 155 0 198 -3 215 -15z m538 -325 c55 -5 134 -15 175 -20 85
-11 290 -26 495 -36 101 -4 159 -12 208 -28 l67 -21 -28 -60 -29 -61 -44 3
c-84 6 -244 23 -309 33 -36 6 -155 19 -265 30 -110 12 -213 25 -229 30 -16 6
-47 10 -68 10 -34 0 -45 6 -85 50 -26 28 -53 60 -61 72 -15 20 -14 21 29 15
24 -4 89 -11 144 -17z"/>
</g>
</svg>
